# xmcd
#
# Track frame offsets: 
#        150
#        11567
#        22603
#        32762
#        47234
#        57632
#        66252
#        81014
#        93268
#        103712
#        118893
#        129933
#        137551
#        150257
#        161985
#
# Disc length: 2353 seconds
#
# Revision: 0
# Processed by: cddbd v1.5.2PL0 Copyright (c) Steve Scherf et al.
# Submitted via: ExactAudioCopy v0.99pb5
#
DISCID=bd092f0f
DTITLE=Various Artist - Essential Louisiana R&B
DYEAR=1960
DGENRE=R&B
TTITLE0=Ernie K-Doe - Mother-in-Law
TTITLE1=Lee Dorsey - Ya Ya
TTITLE2=Aaron Neville - Over You
TTITLE3=Cookie and The Cupcakes - Mathilda
TTITLE4=Jessie Hill - Ooh Poo Pah Doo Pt I
TTITLE5=Chris Kenner - I Like It Like That
TTITLE6=Art Neville - All These Things
TTITLE7=Bobby Powell - C.C. Rider
TTITLE8=Bobby Charles - Preacher's Daughter
TTITLE9=Toussaint McCall - Nothing Takes The Place of You
TTITLE10=Willie West - Hello Mama
TTITLE11=Eldridge Holmes - Where Is The Love
TTITLE12=Warren Lee - Underdog Backstreet
TTITLE13=Tommy Ridgley - In the Same Old Way
TTITLE14=Earl King - Street Parade
EXTD=
EXTT0=
EXTT1=
EXTT2=
EXTT3=
EXTT4=
EXTT5=
EXTT6=
EXTT7=
EXTT8=
EXTT9=
EXTT10=
EXTT11=
EXTT12=
EXTT13=
EXTT14=
PLAYORDER=
